<svg width="71" height="34" viewBox="0 0 71 34" fill="none" xmlns="http://www.w3.org/2000/svg">
<rect width="70.0968" height="33.0645" rx="5" fill="white"/>
<path d="M24.5245 28.5808C24.5163 28.478 24.5301 28.3746 24.5649 28.2768C24.5997 28.1789 24.6548 28.0885 24.7271 28.0108C24.7995 27.9331 24.8875 27.8697 24.9862 27.8241C25.0849 27.7786 25.1922 27.7519 25.302 27.7456H25.3684C25.4792 27.7464 25.5887 27.7679 25.6905 27.809C25.7923 27.8501 25.8843 27.9098 25.9611 27.9848C26.0379 28.0597 26.0979 28.1483 26.1376 28.2453C26.1774 28.3423 26.196 28.4458 26.1924 28.5497V28.6057C26.2053 28.8127 26.131 29.0162 25.9856 29.1724C25.8403 29.3286 25.6353 29.425 25.4149 29.441H25.3551C25.2444 29.441 25.1347 29.4202 25.0326 29.3799C24.9305 29.3396 24.838 29.2805 24.7606 29.2062C24.6832 29.1319 24.6224 29.0437 24.5819 28.9471C24.5413 28.8504 24.5218 28.747 24.5245 28.6431C24.5212 28.6225 24.5212 28.6015 24.5245 28.5808V28.5808ZM26.7772 28.5808V27.303H26.1725V27.6209C26.0687 27.495 25.9344 27.3943 25.7806 27.3271C25.6269 27.2598 25.4582 27.2281 25.2887 27.2345C25.1021 27.2303 24.9165 27.2613 24.7429 27.3256C24.5693 27.3899 24.4112 27.4862 24.278 27.6088C24.1447 27.7315 24.0391 27.8779 23.9673 28.0395C23.8955 28.2011 23.859 28.3746 23.8599 28.5497V28.6057C23.851 28.7777 23.8783 28.9496 23.9403 29.1116C24.0023 29.2736 24.0977 29.4226 24.2212 29.55C24.3447 29.6774 24.4937 29.7806 24.6598 29.8539C24.8258 29.9272 25.0057 29.969 25.189 29.977H25.2488C25.4178 29.9847 25.5863 29.9541 25.7401 29.8879C25.8939 29.8218 26.0285 29.7219 26.1326 29.5968V29.9147H26.7374L26.7772 28.5808ZM47.2117 28.5808C47.1988 28.3738 47.2731 28.1704 47.4185 28.0142C47.5639 27.858 47.7688 27.7616 47.9892 27.7456H48.0556C48.1667 27.7464 48.2765 27.7679 48.3787 27.8089C48.4808 27.8499 48.5732 27.9096 48.6505 27.9844C48.7278 28.0592 48.7885 28.1478 48.829 28.2448C48.8694 28.3418 48.8889 28.4455 48.8863 28.5497C48.8895 28.5682 48.8895 28.5872 48.8863 28.6057C48.8944 28.7081 48.8809 28.811 48.8465 28.9085C48.8122 29.0059 48.7576 29.096 48.686 29.1737C48.6143 29.2513 48.527 29.3148 48.4291 29.3607C48.3312 29.4066 48.2246 29.4339 48.1154 29.441H48.049C47.9393 29.4426 47.8304 29.4239 47.7285 29.3859C47.6267 29.3478 47.5338 29.2913 47.4553 29.2194C47.3769 29.1476 47.3144 29.0619 47.2714 28.9672C47.2284 28.8726 47.2059 28.7709 47.205 28.6681V28.6057L47.2117 28.5808ZM49.4578 28.6057V26.231H48.8464V27.596C48.744 27.4702 48.6109 27.3694 48.4582 27.3022C48.3055 27.2349 48.1378 27.2031 47.9692 27.2095C47.7834 27.2103 47.5996 27.2458 47.4285 27.3138C47.2574 27.3818 47.1024 27.481 46.9725 27.6057C46.8427 27.7304 46.7406 27.8781 46.6721 28.0401C46.6036 28.2022 46.5702 28.3754 46.5737 28.5497C46.5737 28.5497 46.5737 28.587 46.5737 28.6057C46.5639 28.7779 46.5906 28.9501 46.6522 29.1125C46.7139 29.2749 46.8093 29.4242 46.9329 29.5517C47.0565 29.6793 47.2059 29.7826 47.3724 29.8556C47.5389 29.9286 47.7192 29.9698 47.9028 29.977H47.9692C48.1375 29.9863 48.3056 29.9565 48.4587 29.8901C48.6117 29.8238 48.7449 29.723 48.8464 29.5968V29.9147H49.4511L49.4578 28.6057ZM34.2665 27.7207C34.3571 27.7155 34.4478 27.7279 34.5331 27.7569C34.6184 27.786 34.6964 27.8311 34.7624 27.8894C34.8284 27.9478 34.881 28.0183 34.9168 28.0965C34.9527 28.1746 34.9711 28.2589 34.9709 28.344H33.5289C33.5409 28.1704 33.6247 28.008 33.7625 27.8916C33.9003 27.7751 34.0812 27.7138 34.2665 27.7207ZM34.2665 27.2095C33.9063 27.2029 33.558 27.3303 33.2977 27.5639C33.0374 27.7975 32.8864 28.1183 32.8777 28.4562C32.8743 28.4976 32.8743 28.5393 32.8777 28.5808C32.865 28.7495 32.888 28.9189 32.9454 29.0792C33.0027 29.2396 33.0933 29.3877 33.2118 29.5151C33.3304 29.6425 33.4746 29.7467 33.6362 29.8217C33.7978 29.8967 33.9736 29.941 34.1536 29.9521H34.2998C34.7151 29.9672 35.1219 29.8385 35.4428 29.5906L35.157 29.173C34.9267 29.3463 34.6415 29.4428 34.3463 29.4472C34.149 29.4633 33.9526 29.4075 33.7979 29.2915C33.6433 29.1754 33.5422 29.008 33.5156 28.8239H35.5823C35.5823 28.7553 35.5823 28.6868 35.5823 28.6057C35.5997 28.4419 35.5823 28.2765 35.5312 28.1189C35.48 27.9614 35.3961 27.815 35.2842 27.6881C35.1724 27.5612 35.0349 27.4563 34.8796 27.3795C34.7243 27.3027 34.5543 27.2555 34.3795 27.2407H34.2599L34.2665 27.2095ZM41.5698 28.612C41.5626 28.5096 41.577 28.4069 41.6122 28.3098C41.6474 28.2127 41.7027 28.123 41.7749 28.046C41.8472 27.969 41.9349 27.9061 42.0331 27.861C42.1314 27.8158 42.2381 27.7893 42.3473 27.783H42.4137C42.6347 27.7796 42.8481 27.8583 43.0074 28.002C43.1667 28.1456 43.2591 28.3424 43.2643 28.5497C43.2677 28.5682 43.2677 28.5872 43.2643 28.6057C43.2688 28.7081 43.2517 28.8102 43.214 28.9064C43.1763 29.0025 43.1188 29.0907 43.0447 29.166C42.9707 29.2412 42.8815 29.3021 42.7823 29.345C42.6832 29.3879 42.576 29.412 42.4669 29.416H42.4004C42.2908 29.4177 42.1819 29.399 42.08 29.3609C41.9781 29.3229 41.8853 29.2663 41.8068 29.1945C41.7283 29.1226 41.6658 29.0369 41.6229 28.9423C41.5799 28.8477 41.5573 28.746 41.5565 28.6431V28.5808L41.5698 28.612ZM43.8092 28.5808V27.303H43.2045V27.6209C43.1022 27.4955 42.9689 27.3953 42.816 27.3291C42.6632 27.2628 42.4955 27.2325 42.3273 27.2407C41.9572 27.2407 41.6023 27.3786 41.3406 27.6241C41.0788 27.8696 40.9318 28.2025 40.9318 28.5497V28.612C40.9156 28.9582 41.0464 29.2963 41.2955 29.5522C41.5447 29.8081 41.8918 29.9609 42.2609 29.977H42.3273C42.4957 29.9824 42.6631 29.9502 42.8156 29.883C42.9681 29.8158 43.1014 29.7156 43.2045 29.5906V29.9085H43.8092V28.5808ZM38.1408 28.5808C38.1245 28.9283 38.2548 29.2678 38.5036 29.5256C38.7524 29.7835 39.0996 29.939 39.4698 29.9583H39.6094C39.9738 29.9767 40.3321 29.8654 40.6128 29.6467L40.3603 29.173C40.1515 29.3216 39.898 29.4045 39.636 29.4098C39.4155 29.4099 39.2039 29.329 39.0461 29.1846C38.8884 29.0402 38.7972 28.8436 38.792 28.6369V28.5683C38.7792 28.363 38.8527 28.1611 38.9969 28.0061C39.141 27.8511 39.3442 27.7553 39.5629 27.7394H39.636C39.898 27.7447 40.1515 27.8276 40.3603 27.9762L40.6527 27.5212C40.372 27.3025 40.0137 27.1912 39.6493 27.2095C39.4645 27.1995 39.2795 27.2238 39.1048 27.2811C38.9302 27.3384 38.7693 27.4275 38.6315 27.5434C38.4938 27.6593 38.3818 27.7996 38.3022 27.9563C38.2225 28.1129 38.1767 28.2828 38.1673 28.4562V28.587L38.1408 28.5808ZM45.969 27.2158C45.8216 27.2095 45.6752 27.2417 45.5461 27.3089C45.4171 27.376 45.3104 27.4754 45.238 27.596V27.303H44.6399V29.9147H45.2446V28.425C45.2446 27.9949 45.444 27.7518 45.8361 27.7518C45.9653 27.7507 46.0937 27.7718 46.2149 27.8142L46.4009 27.2843C46.263 27.2349 46.1166 27.2095 45.969 27.2095V27.2158ZM29.7543 27.4838C29.4119 27.291 29.0171 27.1957 28.618 27.2095C27.9136 27.2095 27.4617 27.5274 27.4617 28.0448C27.4617 28.5621 27.8006 28.7304 28.4253 28.8177L28.711 28.8551C29.0433 28.8987 29.1961 28.9797 29.1961 29.1293C29.1961 29.2789 28.9768 29.441 28.5316 29.441C28.1985 29.45 27.8715 29.3558 27.6013 29.173L27.3222 29.6093C27.6717 29.8451 28.0946 29.9657 28.525 29.9521C29.329 29.9521 29.7942 29.5968 29.7942 29.0982C29.7942 28.5995 29.4287 28.4001 28.8174 28.319L28.5383 28.2816C28.2724 28.2816 28.0664 28.2006 28.0664 28.0261C28.0664 27.8515 28.2658 27.7207 28.5981 27.7207C28.9021 27.7229 29.2001 27.8003 29.462 27.945L29.7543 27.4838ZM37.5626 27.2095C37.4155 27.2047 37.2696 27.2375 37.1409 27.3045C37.0121 27.3715 36.9052 27.4701 36.8316 27.5898V27.303H36.2336V29.9085H36.8383V28.425C36.8383 27.9887 37.0376 27.7518 37.4297 27.7518C37.559 27.7507 37.6874 27.7718 37.8085 27.8142L37.9946 27.2781C37.8554 27.2337 37.7096 27.2105 37.5626 27.2095V27.2095ZM32.3992 27.2719H31.409V26.4803H30.7977V27.303H30.2395V27.8204H30.7977V29.0109C30.7977 29.6342 31.0502 29.977 31.7679 29.977C32.0297 29.9654 32.2828 29.8855 32.4989 29.7464L32.3194 29.2602C32.1592 29.3528 31.9759 29.4044 31.7878 29.4098C31.4821 29.4098 31.3891 29.2353 31.3891 28.9735V27.7955H32.3793L32.3992 27.2719ZM23.3549 29.8835V28.2442C23.3648 28.1173 23.3479 27.9898 23.3052 27.869C23.2624 27.7482 23.1946 27.6365 23.1057 27.5403C23.0168 27.4442 22.9085 27.3655 22.787 27.3087C22.6656 27.2519 22.5333 27.2182 22.398 27.2095H22.2651C22.0721 27.1964 21.8789 27.2323 21.7058 27.3135C21.5327 27.3947 21.3861 27.5181 21.2815 27.6708C21.1882 27.5226 21.0534 27.4013 20.8917 27.32C20.7301 27.2386 20.5477 27.2004 20.3645 27.2095C20.205 27.201 20.0459 27.2323 19.9035 27.3002C19.7611 27.368 19.6404 27.4701 19.5538 27.596V27.303H18.9424V29.9147H19.5538V28.4375C19.5327 28.2767 19.5793 28.1146 19.6834 27.9855C19.7876 27.8563 19.9413 27.7703 20.112 27.7456H20.2382C20.6369 27.7456 20.8429 27.9887 20.8429 28.4312V29.8773H21.4543V28.4312C21.4353 28.2705 21.4836 28.1092 21.589 27.9813C21.6943 27.8534 21.8486 27.7688 22.0192 27.7456H22.1321C22.5442 27.7456 22.7435 27.9949 22.7435 28.4312V29.8835H23.3549Z" fill="#231F20"/>
<path d="M38.7381 22.8472H29.5742V7.39551H38.7381V22.8472Z" fill="#FF5F00"/>
<path d="M30.1658 15.1251C30.1603 13.6373 30.5165 12.1679 31.2074 10.8286C31.8983 9.48926 32.9058 8.31537 34.153 7.39614C32.6073 6.25568 30.7505 5.54623 28.7951 5.34889C26.8397 5.15156 24.8646 5.4743 23.0955 6.28023C21.3264 7.08616 19.8349 8.34274 18.7913 9.90631C17.7477 11.4699 17.1943 13.2773 17.1943 15.122C17.1943 16.9667 17.7477 18.7741 18.7913 20.3377C19.8349 21.9012 21.3264 23.1578 23.0955 23.9638C24.8646 24.7697 26.8397 25.0924 28.7951 24.8951C30.7505 24.6978 32.6073 23.9883 34.153 22.8479C32.9065 21.928 31.8996 20.754 31.2088 19.4148C30.5179 18.0757 30.1613 16.6066 30.1658 15.1189" fill="#EB001B"/>
<path d="M51.1056 15.1235C51.104 16.9669 50.5498 18.7727 49.5064 20.3347C48.4629 21.8968 46.9721 23.1521 45.2043 23.9575C43.4365 24.7628 41.4629 25.0857 39.5088 24.8892C37.5548 24.6927 35.699 23.9848 34.1533 22.8463C35.4001 21.9265 36.4079 20.7532 37.1009 19.4149C37.7939 18.0766 38.154 16.6082 38.154 15.1204C38.154 13.6326 37.7939 12.1642 37.1009 10.8259C36.4079 9.48766 35.4001 8.31438 34.1533 7.39456C35.6982 6.25354 37.5544 5.54351 39.5094 5.34572C41.4644 5.14793 43.4393 5.47037 45.2081 6.27615C46.9768 7.08193 48.468 8.33849 49.511 9.90203C50.554 11.4656 51.1066 13.2729 51.1056 15.1173" fill="#F79E1B"/>
</svg>
