<svg width="69" height="33" viewBox="0 0 69 33" fill="none" xmlns="http://www.w3.org/2000/svg">
<rect x="0.0964355" width="68.7872" height="33" rx="5" fill="white"/>
<path d="M15.894 10.0509C15.1829 9.23591 13.8928 8.88623 12.2429 8.88623H7.46475C7.30105 8.88615 7.14269 8.94457 7.01804 9.05103C6.89339 9.15748 6.81062 9.30501 6.78456 9.46715L4.78336 22.1402C4.77458 22.1938 4.77651 22.2486 4.78905 22.3014C4.8016 22.3542 4.8245 22.404 4.85642 22.4478C4.88833 22.4917 4.92863 22.5287 4.97496 22.5567C5.0213 22.5848 5.07273 22.6033 5.12626 22.6112C5.14678 22.614 5.16758 22.614 5.1881 22.6112H8.15617L8.88976 17.9102L8.86727 18.0541C8.89517 17.8952 8.97822 17.7514 9.1017 17.6482C9.22517 17.545 9.38111 17.4889 9.54184 17.4901H10.9472C13.7045 17.4901 15.8631 16.3621 16.4926 13.1162C16.5123 13.0175 16.5264 12.9245 16.5404 12.8342C16.7287 11.6329 16.5404 10.8151 15.8912 10.0735" fill="#003087"/>
<path d="M46.4066 16.0463H44.8158C44.741 16.0459 44.6673 16.0639 44.6011 16.0988C44.5349 16.1338 44.4783 16.1845 44.4363 16.2466L42.244 19.4867L41.3165 16.3847C41.2882 16.2899 41.2303 16.2067 41.1514 16.1473C41.0725 16.0879 40.9767 16.0555 40.878 16.0548H39.3125C39.2379 16.0548 39.1664 16.0845 39.1137 16.1374C39.061 16.1903 39.0314 16.262 39.0314 16.3368C39.0313 16.3677 39.037 16.3983 39.0483 16.427L40.8021 21.5764L39.1579 23.9057C39.1164 23.9656 39.0996 24.0393 39.1111 24.1114C39.1227 24.1834 39.1616 24.2482 39.2197 24.292C39.2675 24.3255 39.3245 24.3432 39.3827 24.3428H40.9708C41.0447 24.3426 41.1175 24.3246 41.1831 24.2902C41.2486 24.2559 41.305 24.2062 41.3474 24.1454L46.6315 16.4919C46.6712 16.4312 46.6861 16.3574 46.673 16.286C46.66 16.2145 46.6199 16.1509 46.5612 16.1084C46.5165 16.075 46.4623 16.0572 46.4066 16.0576V16.0463ZM35.7794 19.1596C35.7178 19.5875 35.5023 19.978 35.1735 20.2574C34.8447 20.5369 34.4254 20.6861 33.9946 20.6768C33.8344 20.6936 33.6725 20.6785 33.5181 20.6325C33.3637 20.5864 33.2199 20.5102 33.0948 20.4084C32.9698 20.3065 32.866 20.1808 32.7894 20.0387C32.7128 19.8965 32.6648 19.7406 32.6483 19.5798C32.6337 19.4303 32.646 19.2793 32.6849 19.1342C32.7449 18.7073 32.9576 18.3168 33.2834 18.0355C33.6092 17.7543 34.0258 17.6016 34.4556 17.6058C34.6524 17.5955 34.849 17.6291 35.0312 17.7042C35.2135 17.7793 35.3769 17.894 35.5096 18.0401C35.636 18.1959 35.7267 18.3778 35.7753 18.5727C35.8238 18.7676 35.8291 18.9709 35.7907 19.1681L35.7794 19.1596ZM37.9942 16.0661H36.4034C36.3369 16.065 36.2721 16.0876 36.2206 16.13C36.1691 16.1723 36.1343 16.2316 36.1223 16.2973L36.0521 16.7401L35.9425 16.5821C35.5996 16.083 34.835 15.9138 34.0734 15.9138C33.2022 15.9361 32.3676 16.2701 31.7203 16.8554C31.073 17.4408 30.6555 18.239 30.5431 19.106C30.4601 19.5313 30.4699 19.9695 30.5718 20.3906C30.6737 20.8117 30.8653 21.2056 31.1334 21.5454C31.3841 21.821 31.6933 22.0366 32.0383 22.1762C32.3832 22.3158 32.755 22.3758 33.1262 22.3519C33.5331 22.3554 33.9366 22.2768 34.3128 22.1208C34.6889 21.9648 35.0299 21.7346 35.3157 21.4438L35.2454 21.8837C35.2355 21.9557 35.2537 22.0287 35.2961 22.0875C35.3385 22.1463 35.4019 22.1865 35.4731 22.1996H36.9402C37.0497 22.2001 37.1557 22.1611 37.2388 22.0896C37.3219 22.0181 37.3765 21.919 37.3928 21.8104L38.236 16.3791C38.2457 16.3064 38.2268 16.2327 38.1832 16.1737C38.1397 16.1147 38.0749 16.0751 38.0027 16.0633C37.9887 16.0619 37.9745 16.0619 37.9605 16.0633L37.9942 16.0661ZM28.4689 16.0999C28.289 17.29 27.3839 17.29 26.5014 17.29H26.032L26.3833 15.0678C26.3953 15.0021 26.4301 14.9428 26.4816 14.9005C26.5331 14.8581 26.5978 14.8355 26.6644 14.8366H26.8921C27.4879 14.8366 28.0529 14.8366 28.3424 15.1778C28.4356 15.3105 28.4984 15.4622 28.5261 15.6222C28.5538 15.7822 28.5458 15.9463 28.5026 16.1027L28.4689 16.0999ZM28.1231 13.0007H24.8094C24.7001 13.0008 24.5944 13.04 24.5114 13.1114C24.4284 13.1828 24.3736 13.2815 24.3568 13.3899L23.0218 21.8584C23.0119 21.9303 23.03 22.0033 23.0725 22.0621C23.1149 22.1209 23.1783 22.1611 23.2494 22.1742H24.8684C24.978 22.1743 25.0841 22.1351 25.1675 22.0638C25.2509 21.9925 25.3063 21.8936 25.3237 21.7851L25.6835 19.4924C25.7002 19.384 25.7551 19.2853 25.838 19.2139C25.921 19.1425 26.0267 19.1033 26.136 19.1032H27.1816C29.357 19.1032 30.6134 18.0485 30.9394 15.9533C31.0318 15.5879 31.0418 15.2065 30.9689 14.8368C30.896 14.4671 30.7419 14.1183 30.5178 13.8157C30.0485 13.2517 29.2165 12.9697 28.1119 12.9697" fill="#002F86"/>
<path d="M63.4003 13.2119L62.0428 21.858C62.033 21.9304 62.0515 22.0037 62.0945 22.0626C62.1375 22.1215 62.2016 22.1614 62.2733 22.1739H63.6786C63.788 22.1744 63.894 22.1354 63.9771 22.0639C64.0602 21.9924 64.1149 21.8933 64.1311 21.7847L65.469 13.2881C65.4789 13.2161 65.4607 13.1432 65.4183 13.0843C65.3759 13.0255 65.3125 12.9853 65.2413 12.9722H63.6758C63.6088 12.9712 63.5437 12.9943 63.4922 13.0372C63.4407 13.0801 63.4061 13.1401 63.3947 13.2063L63.4003 13.2119ZM59.3277 19.1283C59.266 19.5562 59.0505 19.9466 58.7217 20.2261C58.393 20.5056 57.9737 20.6547 57.5429 20.6454C57.3827 20.6622 57.2207 20.6472 57.0663 20.6011C56.9119 20.555 56.7681 20.4789 56.643 20.377C56.518 20.2751 56.4142 20.1495 56.3376 20.0073C56.261 19.8652 56.2131 19.7092 56.1966 19.5485C56.1819 19.3989 56.1943 19.248 56.2331 19.1029C56.2931 18.6759 56.5059 18.2854 56.8317 18.0042C57.1575 17.723 57.5741 17.5702 58.0038 17.5745C58.2006 17.5641 58.3972 17.5977 58.5794 17.6728C58.7617 17.7479 58.9251 17.8627 59.0578 18.0087C59.1842 18.1646 59.2749 18.3464 59.3235 18.5414C59.3721 18.7363 59.3773 18.9395 59.3389 19.1367L59.3277 19.1283ZM61.5425 16.0347H59.9629C59.8963 16.0337 59.8315 16.0563 59.7801 16.0986C59.7286 16.141 59.6938 16.2003 59.6818 16.266L59.6115 16.7087L59.5019 16.5508C59.159 16.0517 58.3945 15.8825 57.6328 15.8825C56.7617 15.9048 55.9271 16.2387 55.2798 16.8241C54.6325 17.4094 54.215 18.2077 54.1026 19.0747C54.0196 19.4999 54.0294 19.9382 54.1313 20.3593C54.2332 20.7803 54.4248 21.1743 54.6929 21.514C54.9434 21.7898 55.2527 22.0055 55.5976 22.1452C55.9426 22.2848 56.3144 22.3447 56.6856 22.3205C57.0926 22.3239 57.496 22.2452 57.8721 22.0892C58.2482 21.9332 58.5893 21.7031 58.8751 21.4125L58.8021 21.8524C58.7923 21.9247 58.8108 21.9981 58.8538 22.057C58.8968 22.1159 58.9609 22.1558 59.0325 22.1682H60.4997C60.6092 22.1688 60.7152 22.1297 60.7983 22.0583C60.8814 21.9868 60.936 21.8877 60.9522 21.7791L61.7954 16.3478C61.8052 16.2754 61.7867 16.2021 61.7437 16.1432C61.7007 16.0843 61.6367 16.0444 61.565 16.0319H61.5256L61.5425 16.0347ZM52.034 16.0714C51.8541 17.2586 50.949 17.2586 50.0665 17.2586H49.569L49.9175 15.0393C49.9289 14.9731 49.9635 14.9131 50.015 14.8702C50.0665 14.8273 50.1316 14.8042 50.1986 14.8052H50.4263C51.0221 14.8052 51.5843 14.8052 51.8766 15.1464C51.9679 15.28 52.0295 15.4318 52.0571 15.5914C52.0848 15.751 52.0778 15.9147 52.0368 16.0714H52.034ZM51.6545 12.9694H48.366C48.2569 12.97 48.1515 13.0095 48.0686 13.0807C47.9858 13.152 47.9308 13.2504 47.9135 13.3586L46.5784 21.858C46.5686 21.93 46.5867 22.0029 46.6291 22.0618C46.6715 22.1206 46.7349 22.1608 46.8061 22.1739H48.5431C48.6214 22.1744 48.6971 22.1459 48.7557 22.0939C48.8143 22.0418 48.8517 21.9699 48.8607 21.8919L49.2401 19.4836C49.2569 19.3752 49.3117 19.2765 49.3947 19.2051C49.4777 19.1337 49.5834 19.0945 49.6927 19.0944H50.7382C52.9137 19.0944 54.1673 18.0369 54.4961 15.9445C54.5884 15.5791 54.5985 15.1978 54.5256 14.828C54.4527 14.4583 54.2986 14.1095 54.0745 13.8069C53.6051 13.2429 52.7732 12.9609 51.6686 12.9609" fill="#009CDE"/>
<path d="M15.894 10.0509C15.1829 9.23591 13.8928 8.88623 12.2429 8.88623H7.46475C7.30105 8.88615 7.14269 8.94457 7.01804 9.05103C6.89339 9.15748 6.81062 9.30501 6.78456 9.46715L4.78336 22.1402C4.77458 22.1938 4.77651 22.2486 4.78905 22.3014C4.8016 22.3542 4.8245 22.404 4.85642 22.4478C4.88833 22.4917 4.92863 22.5287 4.97496 22.5567C5.0213 22.5848 5.07273 22.6033 5.12626 22.6112C5.14678 22.614 5.16758 22.614 5.1881 22.6112H8.15617L8.88976 17.9102L8.86727 18.0541C8.89517 17.8952 8.97822 17.7514 9.1017 17.6482C9.22517 17.545 9.38111 17.4889 9.54184 17.4901H10.9472C13.7045 17.4901 15.8631 16.3621 16.4926 13.1162C16.5123 13.0175 16.5264 12.9245 16.5404 12.8342C16.7287 11.6329 16.5404 10.8151 15.8912 10.0735" fill="#003087"/>
<path d="M9.68525 12.8343C9.70679 12.6928 9.7782 12.5637 9.88651 12.4706C9.99482 12.3774 10.1328 12.3264 10.2755 12.3267H14.0278C14.4417 12.3243 14.8552 12.3545 15.2644 12.4169C15.3713 12.4338 15.4781 12.4536 15.5792 12.4761C15.6804 12.4987 15.7816 12.5269 15.8772 12.5551L16.0177 12.5974C16.1957 12.6566 16.3687 12.7302 16.5349 12.8173C16.7232 11.616 16.5349 10.7982 15.8856 10.0594C15.1829 9.23311 13.8844 8.88625 12.2373 8.88625H7.45919C7.2978 8.88493 7.1411 8.94076 7.01669 9.04392C6.89227 9.14708 6.80811 9.29097 6.77901 9.45025L4.78343 22.1403C4.77462 22.1936 4.77646 22.2482 4.78882 22.3009C4.80119 22.3535 4.82384 22.4032 4.85548 22.447C4.88711 22.4908 4.92709 22.5278 4.9731 22.556C5.01911 22.5842 5.07024 22.603 5.12352 22.6112C5.14498 22.614 5.16671 22.614 5.18817 22.6112H8.15624L8.88983 17.9103L9.68525 12.8343Z" fill="#002F86"/>
<path d="M16.5405 12.8123C16.5405 12.9025 16.5096 12.9956 16.4928 13.0943C15.8632 16.3429 13.7046 17.4681 10.9473 17.4681H9.54194C9.38106 17.4664 9.22484 17.5222 9.10124 17.6256C8.97764 17.7289 8.89474 17.873 8.86738 18.0321L8.15628 22.6202L7.9511 23.9174C7.93657 24.012 7.96009 24.1086 8.01649 24.1858C8.07289 24.263 8.15754 24.3146 8.25184 24.3292H8.30805H10.7983C10.9405 24.3277 11.0776 24.2761 11.1856 24.1832C11.2935 24.0904 11.3654 23.9623 11.3886 23.8216L11.411 23.6918L11.8804 20.7083L11.9113 20.5447C11.9329 20.4032 12.0043 20.2742 12.1126 20.181C12.2209 20.0879 12.3589 20.0368 12.5016 20.0371H12.8726C15.287 20.0371 17.1729 19.0529 17.7266 16.2104C17.9571 15.0232 17.8391 14.0305 17.2291 13.334C17.0358 13.1175 16.8043 12.9387 16.5462 12.8066" fill="#009CDE"/>
<path d="M15.8804 12.5513C15.7848 12.5231 15.6865 12.4977 15.5825 12.4752C15.4785 12.4526 15.3745 12.43 15.2677 12.4131C14.8584 12.3506 14.4449 12.3205 14.031 12.3229H10.2787C10.1901 12.3227 10.1026 12.343 10.023 12.3821C9.9346 12.424 9.85787 12.4871 9.79954 12.5658C9.74122 12.6445 9.70307 12.7363 9.68848 12.8333L8.89306 17.9093L8.87057 18.0559C8.8954 17.8943 8.97705 17.7468 9.10076 17.6403C9.22448 17.5338 9.3821 17.4751 9.54514 17.475H10.9505C13.7078 17.475 15.8664 16.347 16.4988 13.1012C16.5156 13.0053 16.5325 12.9123 16.5465 12.8192C16.3806 12.7264 16.2065 12.649 16.0266 12.588L15.886 12.5428" fill="#012069"/>
</svg>
