<svg width="71" height="34" viewBox="0 0 71 34" fill="none" xmlns="http://www.w3.org/2000/svg">
<rect width="70.0968" height="33.0645" rx="5" fill="white"/>
<path d="M35.8984 15.2609C35.8984 17.2896 37.8311 18.4196 39.3579 19.087C40.8847 19.7543 41.4162 20.2259 41.4065 20.8665C41.4065 21.8097 40.1793 22.2279 39.039 22.2457C37.6263 22.269 36.2301 21.9629 34.9804 21.3559L34.2653 24.3812C35.666 24.8855 37.1582 25.1391 38.6621 25.1286C42.8174 25.1286 45.5328 23.2423 45.5521 20.3149C45.5521 16.6044 39.9667 16.3998 40.0054 14.7359C40.0054 14.2376 40.5465 13.6948 41.6868 13.5614C43.0135 13.4482 44.3488 13.6665 45.5521 14.1931L46.2479 11.2034C45.0624 10.8009 43.8103 10.5902 42.5468 10.5806C38.6815 10.5806 35.8888 12.4936 35.8694 15.2342L35.8984 15.2609ZM52.9253 10.8386C52.5625 10.847 52.2106 10.9547 51.9146 11.1481C51.6185 11.3414 51.3918 11.6116 51.2632 11.9241L45.3299 24.9685H49.4755L50.3065 22.8686H55.3798L55.863 24.9685H59.5158L56.3268 10.892H52.9543L52.9253 10.8386ZM53.5341 14.7003L54.742 19.9323H51.4565L53.5438 14.6558L53.5341 14.7003ZM30.8734 10.8653L27.6072 24.9418H31.5595L34.8354 10.8653H30.8734ZM25.0271 10.8653L20.9105 20.4483L19.2484 12.3068C19.1801 11.9089 18.9613 11.546 18.6306 11.2823C18.3 11.0185 17.8787 10.8708 17.4413 10.8653H10.6769L10.5803 11.2746C11.9179 11.5256 13.2164 11.9291 14.4457 12.4758C14.7089 12.5878 14.9362 12.7605 15.1055 12.9772C15.2748 13.1939 15.3804 13.4473 15.412 13.7126L18.5623 24.9418H22.7465L29.1437 10.8653H24.9884" fill="#15195A"/>
</svg>
