<svg width="20" height="20" viewBox="0 0 20 20" fill="none" xmlns="http://www.w3.org/2000/svg">
<g clip-path="url(#clip0_64_923)">
<path d="M19.1667 9.16667C18.9457 9.16667 18.7337 9.07887 18.5774 8.92259C18.4211 8.76631 18.3333 8.55435 18.3333 8.33334C18.3316 6.56577 17.6286 4.8711 16.3788 3.62124C15.1289 2.37138 13.4342 1.66843 11.6667 1.66667C11.4457 1.66667 11.2337 1.57887 11.0774 1.42259C10.9211 1.26631 10.8333 1.05435 10.8333 0.833335C10.8333 0.612321 10.9211 0.40036 11.0774 0.244079C11.2337 0.087799 11.4457 1.54425e-06 11.6667 1.54425e-06C13.8761 0.00242788 15.9943 0.881181 17.5565 2.44346C19.1188 4.00574 19.9976 6.12394 20 8.33334C20 8.55435 19.9122 8.76631 19.7559 8.92259C19.5996 9.07887 19.3877 9.16667 19.1667 9.16667ZM16.6667 8.33334C16.6667 7.00725 16.1399 5.73548 15.2022 4.7978C14.2645 3.86012 12.9928 3.33334 11.6667 3.33334C11.4457 3.33334 11.2337 3.42113 11.0774 3.57741C10.9211 3.73369 10.8333 3.94565 10.8333 4.16667C10.8333 4.38768 10.9211 4.59964 11.0774 4.75592C11.2337 4.9122 11.4457 5 11.6667 5C12.5507 5 13.3986 5.35119 14.0237 5.97631C14.6488 6.60143 15 7.44928 15 8.33334C15 8.55435 15.0878 8.76631 15.2441 8.92259C15.4004 9.07887 15.6123 9.16667 15.8333 9.16667C16.0543 9.16667 16.2663 9.07887 16.4226 8.92259C16.5789 8.76631 16.6667 8.55435 16.6667 8.33334ZM18.4858 18.47L19.2442 17.5958C19.7268 17.1116 19.9979 16.4558 19.9979 15.7721C19.9979 15.0884 19.7268 14.4326 19.2442 13.9483C19.2183 13.9225 17.2133 12.38 17.2133 12.38C16.7321 11.9219 16.0929 11.6669 15.4286 11.6678C14.7642 11.6687 14.1258 11.9256 13.6458 12.385L12.0575 13.7233C10.761 13.1867 9.58324 12.3993 8.59191 11.4063C7.60057 10.4132 6.81518 9.23411 6.28084 7.93667L7.61417 6.35334C8.07393 5.87348 8.33108 5.2349 8.33217 4.57034C8.33326 3.90578 8.07819 3.26636 7.62 2.785C7.62 2.785 6.07584 0.782502 6.05 0.756668C5.57455 0.278125 4.9299 0.00585322 4.25536 -0.00131947C3.58081 -0.00849216 2.93053 0.25001 2.445 0.718335L1.48667 1.55167C-4.175 8.12 8.01667 20.2175 14.8017 20C15.4868 20.004 16.1658 19.8706 16.7986 19.6079C17.4314 19.3451 18.0051 18.9582 18.4858 18.47Z" fill="#444444"/>
</g>
<defs>
<clipPath id="clip0_64_923">
<rect width="20" height="20" fill="white"/>
</clipPath>
</defs>
</svg>
