<svg width="29" height="28" viewBox="0 0 29 28" fill="none" xmlns="http://www.w3.org/2000/svg">
<g clip-path="url(#clip0_65_183)">
<path d="M27.5395 7.21721C27.216 6.00504 26.2632 5.04954 25.0525 4.72521C22.8597 4.13721 14.0639 4.13721 14.0639 4.13721C14.0639 4.13721 5.26811 4.13721 3.07414 4.72521C1.86464 5.04954 0.911811 6.00387 0.588341 7.21721C0 9.41521 0 14.0002 0 14.0002C0 14.0002 0 18.5852 0.588341 20.7832C0.911811 21.9954 1.86464 22.9509 3.07531 23.2752C5.26811 23.8632 14.0639 23.8632 14.0639 23.8632C14.0639 23.8632 22.8597 23.8632 25.0537 23.2752C26.2632 22.9509 27.216 21.9965 27.5407 20.7832C28.1279 18.5852 28.1279 14.0002 28.1279 14.0002C28.1279 14.0002 28.1279 9.41521 27.5395 7.21721ZM11.1879 18.164V9.83637L18.5386 14.0002L11.1879 18.164Z" fill="#767676"/>
</g>
<defs>
<clipPath id="clip0_65_183">
<rect width="28.1279" height="28" fill="white"/>
</clipPath>
</defs>
</svg>
