<svg width="28" height="28" viewBox="0 0 28 28" fill="none" xmlns="http://www.w3.org/2000/svg">
<g clip-path="url(#clip0_65_173)">
<path d="M28 14.085C28 21.0721 22.8737 26.8646 16.1817 27.9158V18.159H19.4355L20.055 14.1223H16.1817V11.5031C16.1817 10.3983 16.723 9.32263 18.4567 9.32263H20.2172V5.88563C20.2172 5.88563 18.6188 5.61263 17.0917 5.61263C13.902 5.61263 11.8183 7.54579 11.8183 11.0446V14.1211H8.27283V18.1578H11.8183V27.9146C5.1275 26.8623 0 21.071 0 14.085C0 6.35346 6.2685 0.0849609 14 0.0849609C21.7315 0.0849609 28 6.35229 28 14.085Z" fill="#767676"/>
</g>
<defs>
<clipPath id="clip0_65_173">
<rect width="28" height="28" fill="white"/>
</clipPath>
</defs>
</svg>
