<svg width="28" height="28" viewBox="0 0 28 28" fill="none" xmlns="http://www.w3.org/2000/svg">
<path d="M14 2.52233C17.738 2.52233 18.1813 2.53633 19.6572 2.604C21.1832 2.674 22.7547 3.02167 23.8665 4.1335C24.9888 5.25583 25.326 6.81217 25.396 8.34283C25.4637 9.81867 25.4777 10.262 25.4777 14C25.4777 17.738 25.4637 18.1813 25.396 19.6572C25.3272 21.175 24.9713 22.7617 23.8665 23.8665C22.7442 24.9888 21.189 25.326 19.6572 25.396C18.1813 25.4637 17.738 25.4777 14 25.4777C10.262 25.4777 9.81867 25.4637 8.34283 25.396C6.83667 25.3272 5.229 24.9632 4.1335 23.8665C3.017 22.75 2.674 21.1785 2.604 19.6572C2.53633 18.1813 2.52233 17.738 2.52233 14C2.52233 10.262 2.53633 9.81867 2.604 8.34283C2.67283 6.83083 3.03217 5.23483 4.1335 4.1335C5.2535 3.0135 6.81567 2.674 8.34283 2.604C9.81867 2.53633 10.262 2.52233 14 2.52233ZM14 0C10.1978 0 9.72067 0.0163333 8.22733 0.084C6.06317 0.183167 3.91417 0.785167 2.34967 2.34967C0.779333 3.92 0.183167 6.06433 0.084 8.22733C0.0163333 9.72067 0 10.1978 0 14C0 17.8022 0.0163333 18.2793 0.084 19.7727C0.183167 21.9345 0.7875 24.0893 2.34967 25.6503C3.91883 27.2195 6.06667 27.8168 8.22733 27.916C9.72067 27.9837 10.1978 28 14 28C17.8022 28 18.2793 27.9837 19.7727 27.916C21.9357 27.8168 24.087 27.2137 25.6503 25.6503C27.2218 24.0788 27.8168 21.9357 27.916 19.7727C27.9837 18.2793 28 17.8022 28 14C28 10.1978 27.9837 9.72067 27.916 8.22733C27.8168 6.06317 27.2137 3.913 25.6503 2.34967C24.0835 0.782833 21.9298 0.182 19.7727 0.084C18.2793 0.0163333 17.8022 0 14 0Z" fill="#767676"/>
<path d="M14 6.81104C10.0298 6.81104 6.811 10.0299 6.811 14C6.811 17.9702 10.0298 21.189 14 21.189C17.9702 21.189 21.189 17.9702 21.189 14C21.189 10.0299 17.9702 6.81104 14 6.81104ZM14 18.6667C11.4228 18.6667 9.33334 16.5772 9.33334 14C9.33334 11.4229 11.4228 9.33337 14 9.33337C16.5772 9.33337 18.6667 11.4229 18.6667 14C18.6667 16.5772 16.5772 18.6667 14 18.6667Z" fill="#767676"/>
<path d="M21.4737 8.20619C22.4015 8.20619 23.1537 7.45403 23.1537 6.52619C23.1537 5.59835 22.4015 4.84619 21.4737 4.84619C20.5458 4.84619 19.7937 5.59835 19.7937 6.52619C19.7937 7.45403 20.5458 8.20619 21.4737 8.20619Z" fill="#767676"/>
</svg>
