<svg width="70" height="34" viewBox="0 0 70 34" fill="none" xmlns="http://www.w3.org/2000/svg">
<rect x="0.322266" width="68.7742" height="33.0645" rx="5" fill="white"/>
<path d="M59.0643 19.4018L59.6922 18.1403H56.3434C55.8205 18.0903 55.2965 18.2257 54.8862 18.5169C54.4758 18.8081 54.2125 19.2313 54.1538 19.694C54.1495 19.7676 54.1495 19.8414 54.1538 19.915C54.1273 20.3332 54.2883 20.7437 54.6019 21.0573C54.9154 21.371 55.3561 21.5623 55.8282 21.5898C55.9298 21.6006 56.0325 21.6006 56.1341 21.5898H57.6153C57.6841 21.584 57.7535 21.5902 57.8195 21.6082C57.8855 21.6262 57.9469 21.6556 58 21.6947C58.0532 21.7338 58.0971 21.7818 58.1291 21.836C58.1612 21.8901 58.1808 21.9494 58.1869 22.0103C58.1869 22.0103 58.1869 22.0103 58.1869 22.0531C58.189 22.1133 58.1775 22.1732 58.153 22.2293C58.1285 22.2854 58.0915 22.3366 58.0441 22.3799C57.9968 22.4231 57.9402 22.4574 57.8776 22.4809C57.815 22.5043 57.7477 22.5164 57.6797 22.5164H54.3228V23.7779H57.6153C57.8754 23.8026 58.1385 23.7816 58.3895 23.7161C58.6404 23.6506 58.8743 23.5419 59.0777 23.3962C59.2811 23.2506 59.45 23.0708 59.5748 22.8672C59.6996 22.6637 59.7778 22.4403 59.8049 22.2099C59.8592 21.9646 59.847 21.7115 59.7695 21.4712C59.6919 21.2309 59.5512 21.0102 59.3588 20.8273C59.1664 20.6445 58.9277 20.5046 58.6625 20.4191C58.3972 20.3336 58.1128 20.3049 57.8326 20.3355H56.3273C56.2585 20.3414 56.1891 20.3351 56.1231 20.3171C56.057 20.2991 55.9957 20.2698 55.9425 20.2307C55.8894 20.1916 55.8455 20.1435 55.8135 20.0894C55.7814 20.0352 55.7618 19.9759 55.7557 19.915V19.8722C55.7547 19.8117 55.7672 19.7516 55.7926 19.6955C55.818 19.6393 55.8558 19.5882 55.9037 19.5451C55.9517 19.5019 56.0089 19.4677 56.0719 19.4443C56.1349 19.421 56.2026 19.4089 56.2709 19.409H59.0724L59.0643 19.4018ZM49.9274 19.8651C49.9274 19.7434 49.9814 19.6267 50.0778 19.54C50.1742 19.4533 50.3053 19.4037 50.4426 19.4018H53.236L53.872 18.1403H50.5231C50.0003 18.0903 49.4763 18.2257 49.0659 18.5169C48.6556 18.8081 48.3922 19.2313 48.3335 19.694C48.3253 19.7675 48.3253 19.8415 48.3335 19.915C48.3182 20.1219 48.3493 20.3295 48.4248 20.5258C48.5004 20.7221 48.6189 20.9032 48.7738 21.0588C48.9286 21.2144 49.1166 21.3415 49.327 21.4326C49.5374 21.5237 49.7661 21.5772 49.9999 21.5898C50.1042 21.6005 50.2095 21.6005 50.3138 21.5898H51.8192C51.9576 21.5799 52.095 21.6183 52.2018 21.6969C52.3087 21.7755 52.3765 21.888 52.3908 22.0103V22.0531C52.3918 22.1136 52.3793 22.1737 52.3539 22.2299C52.3285 22.286 52.2907 22.3371 52.2427 22.3803C52.1948 22.4234 52.1376 22.4576 52.0746 22.481C52.0116 22.5043 51.9439 22.5164 51.8756 22.5164H48.5187V23.7779H51.7951C52.0552 23.8026 52.3183 23.7816 52.5692 23.7161C52.8202 23.6506 53.054 23.5419 53.2575 23.3962C53.4609 23.2506 53.6298 23.0708 53.7546 22.8672C53.8794 22.6637 53.9576 22.4403 53.9847 22.2099C54.0417 21.9615 54.0306 21.7045 53.952 21.4607C53.8735 21.2169 53.73 20.9934 53.5335 20.809C53.337 20.6246 53.0934 20.4846 52.8231 20.401C52.5527 20.3173 52.2637 20.2924 51.9802 20.3283H50.4748C50.3364 20.3383 50.199 20.2999 50.0922 20.2213C49.9854 20.1427 49.9176 20.0302 49.9033 19.9078V19.8651H49.9274ZM42.6099 23.7707H47.7861V22.5092H44.2199V21.5471H47.7056V20.3212H44.2279V19.409H47.7861V18.1475H42.6099V23.7707ZM42.3603 23.7707L40.2995 21.7181C40.7707 21.6527 41.1992 21.4383 41.5056 21.1146C41.812 20.791 41.9755 20.38 41.9659 19.9577C41.9755 19.7231 41.9328 19.4892 41.84 19.2692C41.7472 19.0493 41.6062 18.8478 41.4252 18.6763C41.2441 18.5047 41.0266 18.3666 40.7851 18.2697C40.5435 18.1728 40.2828 18.1192 40.0177 18.1118H39.7601H36.2261V23.7351H37.8361V21.7395H38.464L40.3639 23.7351L42.3603 23.7707ZM39.5911 20.5564H37.8442V19.409H39.5911C39.766 19.3887 39.943 19.4305 40.0832 19.5253C40.2235 19.6201 40.3157 19.7602 40.3397 19.915V19.9862C40.3397 20.307 40.0902 20.5564 39.5911 20.5564ZM35.566 20.0433C35.5945 19.5642 35.4071 19.0946 35.0448 18.7378C34.6825 18.381 34.1751 18.1661 33.634 18.1403H29.786V23.7707H31.396V21.9391H33.3039C33.5783 21.9586 33.8544 21.9299 34.1162 21.8548C34.3781 21.7797 34.6207 21.6596 34.8301 21.5014C35.0395 21.3432 35.2115 21.1499 35.3364 20.9327C35.4613 20.7155 35.5366 20.4787 35.558 20.2357C35.566 20.1717 35.566 20.1072 35.558 20.0433H35.566ZM33.956 20.0433C33.9592 20.1228 33.9447 20.2022 33.9132 20.2768C33.8818 20.3514 33.8341 20.4198 33.7728 20.478C33.7115 20.5363 33.6378 20.5832 33.556 20.6163C33.4741 20.6493 33.3857 20.6677 33.2959 20.6704H31.4041V19.4018H33.1993C33.3825 19.39 33.5637 19.4423 33.7038 19.5477C33.8438 19.653 33.9315 19.8028 33.9479 19.9649V20.0433H33.956ZM29.6572 23.7636L27.1053 20.9128L29.6411 18.1261H27.6688L26.1715 19.8508L24.6098 18.1475H22.5812L25.125 20.9983L22.5892 23.8064H24.6098L26.1071 22.0602L27.6125 23.8064L29.6572 23.7636ZM17.3486 23.7636H22.5248V22.5092H18.9586V21.5471H22.4362V20.3212H18.9586V19.409H22.5248V18.1475H17.3486V23.7707V23.7636Z" fill="#016FD0"/>
<path d="M58.8629 16.2377V10.6144H57.2529V14.0996L54.7171 10.6144H52.6723V16.2377H54.2824V12.6243L56.8987 16.2377H58.8629ZM50.692 16.2377H52.5114L49.7904 10.6144H47.6974L44.9764 16.2377H46.7555L47.2788 15.0902H50.1688L50.692 16.2377ZM49.565 13.8359H47.802L48.6875 11.9116L49.565 13.8359ZM44.3727 11.883H46.0793V10.6144H44.2439C43.4809 10.5694 42.7289 10.7939 42.1525 11.2387C41.5762 11.6835 41.2224 12.3125 41.1687 12.9877C41.1567 13.1206 41.1567 13.254 41.1687 13.3869V13.4653C41.1687 15.19 42.2957 16.2377 44.1151 16.2377H44.2439L44.904 14.9762H44.3888C43.9898 14.9997 43.5965 14.8825 43.2949 14.6502C42.9932 14.4178 42.8076 14.0892 42.7788 13.7361C42.7667 13.6461 42.7667 13.5552 42.7788 13.4653V13.3869C42.7358 13.0364 42.8514 12.6851 43.1004 12.4099C43.3493 12.1347 43.7113 11.9581 44.107 11.9187L44.3727 11.883ZM38.7778 16.2092H40.3879V10.6144H38.7778V16.2377V16.2092ZM38.5283 16.2092L36.4675 14.1566C36.941 14.0976 37.3741 13.8877 37.6853 13.5663C37.9965 13.2448 38.1646 12.8338 38.158 12.4105C38.1665 12.1777 38.1231 11.9458 38.0301 11.728C37.9372 11.5102 37.7965 11.3107 37.6162 11.1412C37.436 10.9717 37.2196 10.8353 36.9797 10.74C36.7397 10.6447 36.4808 10.5924 36.2179 10.5859C36.1322 10.5788 36.046 10.5788 35.9603 10.5859H32.4263V16.2092H34.0363V14.2136H34.6642L36.5641 16.2092H38.5283ZM35.759 12.9949H34.0041V11.8759H35.759C35.8452 11.8659 35.9328 11.8711 36.0167 11.8911C36.1006 11.9112 36.1793 11.9457 36.2481 11.9927C36.3169 12.0397 36.3745 12.0983 36.4177 12.1651C36.4609 12.2319 36.4887 12.3056 36.4996 12.3819C36.5036 12.4056 36.5036 12.4296 36.4996 12.4532C36.4996 12.7739 36.242 13.0234 35.751 13.0234L35.759 12.9949ZM26.3001 16.2092H31.4764V14.9762H27.9182V14.0212H31.3959V12.7882H27.9182V11.8759H31.4764V10.6144H26.3001V16.2377V16.2092ZM23.6356 16.2092H25.2456V10.6144H22.7098L21.293 14.178L19.8681 10.6144H17.3001V16.2377H18.9101V12.0755L20.5845 16.2377H21.9933L23.6677 12.0755V16.2377L23.6356 16.2092ZM15.2956 16.2092H17.1149L14.394 10.5859H12.301L9.58002 16.2092H11.3591L11.8824 15.0617H14.7724L15.2956 16.2092ZM14.233 13.8359H12.4781L13.3555 11.9116L14.233 13.8359Z" fill="#016FD0"/>
</svg>
