<svg width="19" height="15" viewBox="0 0 19 15" fill="none" xmlns="http://www.w3.org/2000/svg">
<path d="M3.45801 0C2.66236 0 1.8993 0.31607 1.33669 0.87868C0.774078 1.44129 0.458008 2.20435 0.458008 3V3.3015L9.45801 8.148L18.458 3.303V3C18.458 2.20435 18.1419 1.44129 17.5793 0.87868C17.0167 0.31607 16.2537 0 15.458 0H3.45801ZM18.458 5.0055L9.81351 9.66C9.70425 9.71882 9.5821 9.74961 9.45801 9.74961C9.33392 9.74961 9.21177 9.71882 9.10251 9.66L0.458008 5.0055V12C0.458008 12.7956 0.774078 13.5587 1.33669 14.1213C1.8993 14.6839 2.66236 15 3.45801 15H15.458C16.2537 15 17.0167 14.6839 17.5793 14.1213C18.1419 13.5587 18.458 12.7956 18.458 12V5.0055Z" fill="#808080"/>
</svg>
