<svg width="28" height="28" viewBox="0 0 28 28" fill="none" xmlns="http://www.w3.org/2000/svg">
<g clip-path="url(#clip0_65_181)">
<path d="M26.2092 11.5103C23.7136 11.5103 21.4002 10.7123 19.5125 9.35667V19.1392C19.5125 24.0252 15.5377 27.9988 10.6528 27.9988C8.76515 27.9988 7.01398 27.4038 5.57548 26.3935C3.29115 24.7893 1.79315 22.1363 1.79315 19.1392C1.79315 14.2532 5.76799 10.2783 10.654 10.2783C11.06 10.2783 11.4567 10.3122 11.8475 10.3647V11.5045V15.2787C11.4695 15.1608 11.0705 15.092 10.654 15.092C8.42332 15.092 6.60799 16.9073 6.60799 19.1392C6.60799 20.6932 7.48999 22.043 8.77799 22.7208C9.33915 23.016 9.97732 23.1852 10.6552 23.1852C12.8345 23.1852 14.6125 21.4515 14.6942 19.2908L14.6977 0H19.5113C19.5113 0.417667 19.5522 0.824833 19.6245 1.2215C19.964 3.0555 21.0525 4.62933 22.561 5.61283C23.611 6.29767 24.864 6.69783 26.208 6.69783V11.5103H26.2092Z" fill="#767676"/>
</g>
<defs>
<clipPath id="clip0_65_181">
<rect width="28" height="28" fill="white"/>
</clipPath>
</defs>
</svg>
